<svg width="800" height="400" viewBox="0 0 800 400" xmlns="http://www.w3.org/2000/svg"><mask id="satori_om-id"><rect x="0" y="0" width="800" height="400" fill="#fff"/></mask><rect x="0" y="0" width="800" height="400" fill="white"/><mask id="satori_om-id-0"><rect x="42" y="42" width="229" height="24" fill="#fff"/></mask><mask id="satori_om-id-0-0"><rect x="42" y="42" width="24" height="24" fill="#fff"/></mask><rect x="42" y="42" width="24" height="24" fill="black"/><mask id="satori_om-id-0-1"><rect x="74" y="42" width="197" height="24" fill="#fff"/></mask><path fill="black" d="M78.2 60.7L75.3 60.7L75.3 46.2L78.3 46.2L78.3 51.6L78.4 51.6Q78.6 51.2 79.0 50.7Q79.3 50.3 80.0 50.0Q80.6 49.7 81.5 49.7L81.5 49.7Q82.7 49.7 83.7 50.3Q84.7 50.9 85.3 52.2Q85.9 53.4 85.9 55.3L85.9 55.3Q85.9 57.1 85.3 58.4Q84.7 59.6 83.7 60.3Q82.7 60.9 81.5 60.9L81.5 60.9Q80.6 60.9 80.0 60.6Q79.4 60.3 79.0 59.9Q78.6 59.4 78.4 59.0L78.4 59.0L78.2 59.0L78.2 60.7ZM78.2 55.3L78.2 55.3Q78.2 56.2 78.5 57.0Q78.8 57.7 79.3 58.1Q79.8 58.5 80.5 58.5L80.5 58.5Q81.3 58.5 81.8 58.1Q82.3 57.7 82.5 56.9Q82.8 56.2 82.8 55.3L82.8 55.3Q82.8 54.3 82.6 53.6Q82.3 52.9 81.8 52.5Q81.3 52.1 80.5 52.1L80.5 52.1Q79.8 52.1 79.3 52.5Q78.8 52.9 78.5 53.6Q78.2 54.3 78.2 55.3ZM87.6 46.2L90.6 46.2L90.6 60.7L87.6 60.7L87.6 46.2ZM97.6 60.9L97.6 60.9Q96.0 60.9 94.8 60.2Q93.6 59.5 92.9 58.3Q92.3 57.0 92.3 55.3L92.3 55.3Q92.3 53.6 92.9 52.4Q93.6 51.1 94.8 50.4Q96.0 49.7 97.6 49.7L97.6 49.7Q99.3 49.7 100.5 50.4Q101.7 51.1 102.4 52.4Q103.0 53.6 103.0 55.3L103.0 55.3Q103.0 57.0 102.4 58.3Q101.7 59.5 100.5 60.2Q99.3 60.9 97.6 60.9ZM97.7 58.6L97.7 58.6Q98.4 58.6 98.9 58.2Q99.4 57.7 99.7 57.0Q99.9 56.2 99.9 55.3L99.9 55.3Q99.9 54.3 99.7 53.6Q99.4 52.8 98.9 52.4Q98.4 52.0 97.7 52.0L97.7 52.0Q96.9 52.0 96.4 52.4Q95.9 52.8 95.6 53.6Q95.3 54.3 95.3 55.3L95.3 55.3Q95.3 56.2 95.6 57.0Q95.9 57.7 96.4 58.2Q96.9 58.6 97.7 58.6ZM109.6 65.0L109.6 65.0Q108.1 65.0 107.1 64.6Q106.0 64.2 105.4 63.5Q104.8 62.9 104.6 62.0L104.6 62.0L107.4 61.6Q107.5 61.9 107.8 62.2Q108.1 62.5 108.5 62.7Q109.0 62.9 109.7 62.9L109.7 62.9Q110.6 62.9 111.3 62.4Q111.9 61.9 111.9 60.8L111.9 60.8L111.9 58.8L111.8 58.8Q111.6 59.2 111.2 59.6Q110.8 60.1 110.2 60.3Q109.6 60.6 108.7 60.6L108.7 60.6Q107.5 60.6 106.5 60.0Q105.4 59.4 104.9 58.2Q104.3 57.1 104.3 55.2L104.3 55.2Q104.3 53.4 104.9 52.1Q105.5 50.9 106.5 50.3Q107.5 49.7 108.7 49.7L108.7 49.7Q109.6 49.7 110.2 50.0Q110.8 50.3 111.2 50.7Q111.6 51.2 111.8 51.6L111.8 51.6L111.9 51.6L111.9 49.8L114.9 49.8L114.9 60.8Q114.9 62.2 114.2 63.2Q113.6 64.1 112.3 64.6Q111.1 65.0 109.6 65.0ZM109.6 58.3L109.6 58.3Q110.4 58.3 110.9 57.9Q111.4 57.6 111.7 56.9Q111.9 56.2 111.9 55.2L111.9 55.2Q111.9 54.3 111.7 53.6Q111.4 52.9 110.9 52.5Q110.4 52.1 109.6 52.1L109.6 52.1Q108.9 52.1 108.4 52.5Q107.9 52.9 107.6 53.6Q107.4 54.3 107.4 55.2L107.4 55.2Q107.4 56.2 107.6 56.9Q107.9 57.5 108.4 57.9Q108.9 58.3 109.6 58.3ZM118.8 60.9L118.8 60.9Q118.1 60.9 117.6 60.4Q117.1 59.9 117.1 59.2L117.1 59.2Q117.1 58.5 117.6 58.0Q118.1 57.5 118.8 57.5L118.8 57.5Q119.5 57.5 120.0 58.0Q120.5 58.5 120.5 59.2L120.5 59.2Q120.5 59.7 120.2 60.1Q120.0 60.4 119.6 60.7Q119.2 60.9 118.8 60.9ZM125.7 60.7L122.6 60.7L122.6 49.8L125.6 49.8L125.6 51.7L125.7 51.7Q126.0 50.7 126.7 50.2Q127.4 49.7 128.3 49.7L128.3 49.7Q128.5 49.7 128.8 49.7Q129.1 49.7 129.3 49.8L129.3 49.8L129.3 52.4Q129.0 52.4 128.7 52.3Q128.3 52.3 128.0 52.3L128.0 52.3Q127.3 52.3 126.8 52.6Q126.3 52.9 126.0 53.4Q125.7 53.9 125.7 54.5L125.7 54.5L125.7 60.7ZM132.7 64.8L132.7 64.8Q132.1 64.8 131.6 64.7Q131.1 64.6 130.8 64.5L130.8 64.5L131.5 62.2Q132.0 62.4 132.4 62.4Q132.9 62.4 133.2 62.2Q133.5 62.0 133.7 61.5L133.7 61.5L133.9 61.0L130.0 49.8L133.2 49.8L135.4 57.8L135.5 57.8L137.8 49.8L141.0 49.8L136.8 61.9Q136.5 62.8 135.9 63.4Q135.4 64.1 134.6 64.5Q133.8 64.8 132.7 64.8ZM146.8 60.9L146.8 60.9Q145.1 60.9 143.9 60.2Q142.7 59.5 142.1 58.3Q141.4 57.0 141.4 55.3L141.4 55.3Q141.4 53.6 142.1 52.4Q142.7 51.1 143.9 50.4Q145.1 49.7 146.8 49.7L146.8 49.7Q148.5 49.7 149.7 50.4Q150.9 51.1 151.5 52.4Q152.2 53.6 152.2 55.3L152.2 55.3Q152.2 57.0 151.5 58.3Q150.9 59.5 149.7 60.2Q148.5 60.9 146.8 60.9ZM146.8 58.6L146.8 58.6Q147.6 58.6 148.1 58.2Q148.6 57.7 148.8 57.0Q149.1 56.2 149.1 55.3L149.1 55.3Q149.1 54.3 148.8 53.6Q148.6 52.8 148.1 52.4Q147.6 52.0 146.8 52.0L146.8 52.0Q146.1 52.0 145.5 52.4Q145.0 52.8 144.8 53.6Q144.5 54.3 144.5 55.3L144.5 55.3Q144.5 56.2 144.8 57.0Q145.0 57.7 145.5 58.2Q146.1 58.6 146.8 58.6ZM156.9 60.7L153.8 60.7L153.8 49.8L156.7 49.8L156.7 51.7L156.8 51.7Q157.2 50.8 158.0 50.2Q158.8 49.7 159.9 49.7L159.9 49.7Q161.0 49.7 161.8 50.2Q162.6 50.8 162.8 51.7L162.8 51.7L163.0 51.7Q163.3 50.8 164.2 50.2Q165.0 49.7 166.2 49.7L166.2 49.7Q167.8 49.7 168.7 50.6Q169.7 51.6 169.7 53.4L169.7 53.4L169.7 60.7L166.7 60.7L166.7 54.0Q166.7 53.1 166.2 52.6Q165.7 52.2 165.0 52.2L165.0 52.2Q164.1 52.2 163.7 52.7Q163.2 53.2 163.2 54.1L163.2 54.1L163.2 60.7L160.3 60.7L160.3 53.9Q160.3 53.1 159.8 52.6Q159.4 52.2 158.6 52.2L158.6 52.2Q158.1 52.2 157.7 52.4Q157.3 52.7 157.1 53.1Q156.9 53.6 156.9 54.2L156.9 54.2L156.9 60.7ZM174.9 60.9L174.9 60.9Q173.8 60.9 173.0 60.6Q172.2 60.2 171.7 59.5Q171.2 58.8 171.2 57.7L171.2 57.7Q171.2 56.8 171.6 56.1Q171.9 55.5 172.5 55.2Q173.1 54.8 173.8 54.6Q174.5 54.4 175.3 54.3L175.3 54.3Q176.3 54.2 176.9 54.1Q177.4 54.0 177.7 53.9Q178.0 53.7 178.0 53.3L178.0 53.3L178.0 53.3Q178.0 52.6 177.6 52.2Q177.1 51.9 176.4 51.9L176.4 51.9Q175.5 51.9 175.1 52.2Q174.6 52.6 174.4 53.1L174.4 53.1L171.6 52.9Q171.8 51.9 172.5 51.2Q173.1 50.5 174.1 50.1Q175.1 49.7 176.4 49.7L176.4 49.7Q177.3 49.7 178.1 49.9Q178.9 50.1 179.6 50.5Q180.2 51.0 180.6 51.7Q181.0 52.4 181.0 53.4L181.0 53.4L181.0 60.7L178.1 60.7L178.1 59.2L178.0 59.2Q177.8 59.7 177.3 60.1Q176.9 60.5 176.3 60.7Q175.7 60.9 174.9 60.9ZM175.7 58.8L175.7 58.8Q176.4 58.8 176.9 58.6Q177.4 58.3 177.7 57.9Q178.0 57.4 178.0 56.8L178.0 56.8L178.0 55.7Q177.9 55.8 177.6 55.8Q177.4 55.9 177.1 56.0Q176.8 56.0 176.4 56.1Q176.1 56.1 175.9 56.2L175.9 56.2Q175.4 56.2 175.0 56.4Q174.6 56.6 174.3 56.9Q174.1 57.1 174.1 57.6L174.1 57.6Q174.1 58.2 174.6 58.5Q175.0 58.8 175.7 58.8ZM186.1 54.4L186.1 54.4L186.1 60.7L183.0 60.7L183.0 46.2L186.0 46.2L186.0 51.7L186.1 51.7Q186.5 50.8 187.3 50.2Q188.1 49.7 189.4 49.7L189.4 49.7Q190.5 49.7 191.3 50.2Q192.2 50.7 192.7 51.6Q193.1 52.5 193.1 53.8L193.1 53.8L193.1 60.7L190.1 60.7L190.1 54.3Q190.1 53.3 189.6 52.7Q189.1 52.2 188.2 52.2L188.2 52.2Q187.5 52.2 187.1 52.4Q186.6 52.7 186.3 53.2Q186.1 53.7 186.1 54.4ZM198.3 60.9L198.3 60.9Q197.3 60.9 196.4 60.6Q195.6 60.2 195.2 59.5Q194.7 58.8 194.7 57.7L194.7 57.7Q194.7 56.8 195.0 56.1Q195.4 55.5 195.9 55.2Q196.5 54.8 197.2 54.6Q198.0 54.4 198.8 54.3L198.8 54.3Q199.7 54.2 200.3 54.1Q200.9 54.0 201.2 53.9Q201.4 53.7 201.4 53.3L201.4 53.3L201.4 53.3Q201.4 52.6 201.0 52.2Q200.6 51.9 199.8 51.9L199.8 51.9Q199.0 51.9 198.5 52.2Q198.0 52.6 197.9 53.1L197.9 53.1L195.1 52.9Q195.3 51.9 195.9 51.2Q196.5 50.5 197.5 50.1Q198.5 49.7 199.8 49.7L199.8 49.7Q200.7 49.7 201.6 49.9Q202.4 50.1 203.0 50.5Q203.7 51.0 204.1 51.7Q204.5 52.4 204.5 53.4L204.5 53.4L204.5 60.7L201.6 60.7L201.6 59.2L201.5 59.2Q201.2 59.7 200.8 60.1Q200.4 60.5 199.7 60.7Q199.1 60.9 198.3 60.9ZM199.2 58.8L199.2 58.8Q199.8 58.8 200.4 58.6Q200.9 58.3 201.2 57.9Q201.4 57.4 201.4 56.8L201.4 56.8L201.4 55.7Q201.3 55.8 201.1 55.8Q200.8 55.9 200.5 56.0Q200.2 56.0 199.9 56.1Q199.6 56.1 199.3 56.2L199.3 56.2Q198.8 56.2 198.4 56.4Q198.0 56.6 197.8 56.9Q197.6 57.1 197.6 57.6L197.6 57.6Q197.6 58.2 198.0 58.5Q198.5 58.8 199.2 58.8ZM209.5 60.7L206.5 60.7L206.5 49.8L209.4 49.8L209.4 51.7L209.5 51.7Q209.8 50.7 210.5 50.2Q211.2 49.7 212.1 49.7L212.1 49.7Q212.4 49.7 212.6 49.7Q212.9 49.7 213.1 49.8L213.1 49.8L213.1 52.4Q212.9 52.4 212.5 52.3Q212.1 52.3 211.8 52.3L211.8 52.3Q211.2 52.3 210.6 52.6Q210.1 52.9 209.8 53.4Q209.5 53.9 209.5 54.5L209.5 54.5L209.5 60.7ZM217.1 60.9L217.1 60.9Q216.1 60.9 215.3 60.6Q214.5 60.2 214.0 59.5Q213.5 58.8 213.5 57.7L213.5 57.7Q213.5 56.8 213.9 56.1Q214.2 55.5 214.8 55.2Q215.3 54.8 216.1 54.6Q216.8 54.4 217.6 54.3L217.6 54.3Q218.6 54.2 219.2 54.1Q219.7 54.0 220.0 53.9Q220.3 53.7 220.3 53.3L220.3 53.3L220.3 53.3Q220.3 52.6 219.8 52.2Q219.4 51.9 218.6 51.9L218.6 51.9Q217.8 51.9 217.3 52.2Q216.9 52.6 216.7 53.1L216.7 53.1L213.9 52.9Q214.1 51.9 214.7 51.2Q215.4 50.5 216.4 50.1Q217.3 49.7 218.7 49.7L218.7 49.7Q219.6 49.7 220.4 49.9Q221.2 50.1 221.9 50.5Q222.5 51.0 222.9 51.7Q223.3 52.4 223.3 53.4L223.3 53.4L223.3 60.7L220.4 60.7L220.4 59.2L220.3 59.2Q220.1 59.7 219.6 60.1Q219.2 60.5 218.6 60.7Q218.0 60.9 217.1 60.9ZM218.0 58.8L218.0 58.8Q218.7 58.8 219.2 58.6Q219.7 58.3 220.0 57.9Q220.3 57.4 220.3 56.8L220.3 56.8L220.3 55.7Q220.1 55.8 219.9 55.8Q219.6 55.9 219.3 56.0Q219.0 56.0 218.7 56.1Q218.4 56.1 218.2 56.2L218.2 56.2Q217.6 56.2 217.2 56.4Q216.8 56.6 216.6 56.9Q216.4 57.1 216.4 57.6L216.4 57.6Q216.4 58.2 216.9 58.5Q217.3 58.8 218.0 58.8ZM227.1 60.9L227.1 60.9Q226.4 60.9 225.9 60.4Q225.4 59.9 225.4 59.2L225.4 59.2Q225.4 58.5 225.9 58.0Q226.4 57.5 227.1 57.5L227.1 57.5Q227.8 57.5 228.3 58.0Q228.8 58.5 228.8 59.2L228.8 59.2Q228.8 59.7 228.6 60.1Q228.3 60.4 227.9 60.7Q227.5 60.9 227.1 60.9ZM235.9 60.9L235.9 60.9Q234.2 60.9 233.0 60.2Q231.8 59.5 231.1 58.2Q230.5 57.0 230.5 55.3L230.5 55.3Q230.5 53.6 231.2 52.4Q231.8 51.1 233.0 50.4Q234.2 49.7 235.9 49.7L235.9 49.7Q237.3 49.7 238.4 50.2Q239.4 50.7 240.1 51.6Q240.7 52.6 240.7 53.8L240.7 53.8L237.9 53.8Q237.8 53.0 237.3 52.5Q236.7 52.0 235.9 52.0L235.9 52.0Q235.2 52.0 234.7 52.4Q234.2 52.8 233.9 53.5Q233.6 54.2 233.6 55.3L233.6 55.3Q233.6 56.3 233.9 57.0Q234.2 57.8 234.7 58.2Q235.2 58.5 235.9 58.5L235.9 58.5Q236.4 58.5 236.8 58.3Q237.3 58.1 237.5 57.7Q237.8 57.3 237.9 56.7L237.9 56.7L240.7 56.7Q240.7 58.0 240.1 58.9Q239.5 59.9 238.4 60.4Q237.3 60.9 235.9 60.9ZM247.3 60.9L247.3 60.9Q245.6 60.9 244.4 60.2Q243.2 59.5 242.6 58.3Q241.9 57.0 241.9 55.3L241.9 55.3Q241.9 53.6 242.6 52.4Q243.2 51.1 244.4 50.4Q245.6 49.7 247.3 49.7L247.3 49.7Q249.0 49.7 250.2 50.4Q251.4 51.1 252.0 52.4Q252.7 53.6 252.7 55.3L252.7 55.3Q252.7 57.0 252.0 58.3Q251.4 59.5 250.2 60.2Q249.0 60.9 247.3 60.9ZM247.3 58.6L247.3 58.6Q248.1 58.6 248.6 58.2Q249.1 57.7 249.3 57.0Q249.6 56.2 249.6 55.3L249.6 55.3Q249.6 54.3 249.3 53.6Q249.1 52.8 248.6 52.4Q248.1 52.0 247.3 52.0L247.3 52.0Q246.6 52.0 246.0 52.4Q245.5 52.8 245.3 53.6Q245.0 54.3 245.0 55.3L245.0 55.3Q245.0 56.2 245.3 57.0Q245.5 57.7 246.0 58.2Q246.6 58.6 247.3 58.6ZM257.4 60.7L254.3 60.7L254.3 49.8L257.2 49.8L257.2 51.7L257.3 51.7Q257.7 50.8 258.5 50.2Q259.3 49.7 260.4 49.7L260.4 49.7Q261.5 49.7 262.3 50.2Q263.1 50.8 263.3 51.7L263.3 51.7L263.5 51.7Q263.8 50.8 264.7 50.2Q265.5 49.7 266.7 49.7L266.7 49.7Q268.3 49.7 269.2 50.6Q270.2 51.6 270.2 53.4L270.2 53.4L270.2 60.7L267.2 60.7L267.2 54.0Q267.2 53.1 266.7 52.6Q266.2 52.2 265.5 52.2L265.5 52.2Q264.6 52.2 264.2 52.7Q263.7 53.2 263.7 54.1L263.7 54.1L263.7 60.7L260.8 60.7L260.8 53.9Q260.8 53.1 260.3 52.6Q259.9 52.2 259.1 52.2L259.1 52.2Q258.6 52.2 258.2 52.4Q257.8 52.7 257.6 53.1Q257.4 53.6 257.4 54.2L257.4 54.2L257.4 60.7Z "/><mask id="satori_om-id-1"><rect x="295" y="152" width="210" height="96" fill="#fff"/></mask><rect x="295" y="152" width="210" height="96" fill="black"/><path fill="white" d="M360.0 213.5L347.5 213.5L347.5 184.4L359.2 184.4Q362.4 184.4 364.5 185.3Q366.7 186.3 367.8 188.0Q368.8 189.7 368.8 191.8L368.8 191.8Q368.8 193.5 368.2 194.8Q367.5 196.1 366.3 196.9Q365.1 197.7 363.6 198.1L363.6 198.1L363.6 198.4Q365.2 198.4 366.7 199.3Q368.2 200.2 369.1 201.7Q370.0 203.3 370.0 205.4L370.0 205.4Q370.0 207.7 368.8 209.6Q367.7 211.4 365.5 212.4Q363.2 213.5 360.0 213.5L360.0 213.5ZM353.7 200.7L353.7 208.4L358.7 208.4Q361.3 208.4 362.4 207.5Q363.6 206.5 363.6 204.8L363.6 204.8Q363.6 203.6 363.0 202.7Q362.5 201.8 361.4 201.2Q360.3 200.7 358.8 200.7L358.8 200.7L353.7 200.7ZM353.7 189.4L353.7 196.6L358.2 196.6Q359.5 196.6 360.5 196.1Q361.5 195.7 362.1 194.8Q362.6 194.0 362.6 192.9L362.6 192.9Q362.6 191.3 361.5 190.3Q360.4 189.4 358.4 189.4L358.4 189.4L353.7 189.4ZM392.3 213.5L373.6 213.5L373.6 184.4L379.8 184.4L379.8 208.4L392.3 208.4L392.3 213.5ZM421.6 198.9L421.6 198.9Q421.6 203.7 419.8 207.0Q418.0 210.4 414.9 212.1Q411.8 213.9 408.0 213.9L408.0 213.9Q404.1 213.9 401.0 212.1Q398.0 210.3 396.2 207.0Q394.4 203.7 394.4 198.9L394.4 198.9Q394.4 194.2 396.2 190.8Q398.0 187.5 401.0 185.7Q404.1 184.0 408.0 184.0L408.0 184.0Q411.8 184.0 414.9 185.7Q418.0 187.5 419.8 190.8Q421.6 194.2 421.6 198.9ZM415.4 198.9L415.4 198.9Q415.4 195.8 414.5 193.7Q413.6 191.6 411.9 190.5Q410.2 189.4 408.0 189.4L408.0 189.4Q405.8 189.4 404.1 190.5Q402.4 191.6 401.5 193.7Q400.6 195.8 400.6 198.9L400.6 198.9Q400.6 202.0 401.5 204.1Q402.4 206.2 404.1 207.3Q405.8 208.4 408.0 208.4L408.0 208.4Q410.2 208.4 411.9 207.3Q413.6 206.2 414.5 204.1Q415.4 202.0 415.4 198.9ZM451.4 193.8L445.1 193.8Q444.8 192.7 444.3 191.9Q443.8 191.1 443.0 190.6Q442.2 190.0 441.2 189.7Q440.2 189.4 439.0 189.4L439.0 189.4Q436.8 189.4 435.1 190.5Q433.4 191.6 432.5 193.8Q431.6 195.9 431.6 198.9L431.6 198.9Q431.6 201.9 432.5 204.1Q433.4 206.2 435.1 207.3Q436.8 208.4 439.1 208.4L439.1 208.4Q441.2 208.4 442.7 207.7Q444.2 206.9 444.9 205.6Q445.7 204.2 445.7 202.4L445.7 202.4L447.0 202.5L439.5 202.5L439.5 197.9L451.7 197.9L451.7 201.6Q451.7 205.4 450.0 208.2Q448.4 210.9 445.6 212.4Q442.7 213.9 439.1 213.9L439.1 213.9Q435.0 213.9 431.9 212.1Q428.8 210.2 427.1 206.9Q425.3 203.6 425.3 199.0L425.3 199.0Q425.3 195.4 426.4 192.6Q427.4 189.9 429.3 187.9Q431.1 186.0 433.6 185.0Q436.1 184.0 438.9 184.0L438.9 184.0Q441.4 184.0 443.5 184.7Q445.7 185.4 447.3 186.7Q449.0 188.0 450.0 189.8Q451.1 191.6 451.4 193.8L451.4 193.8Z "/></svg>